<?xml version="1.0" encoding="utf-8"?>
<!-- Generator: Adobe Illustrator 21.0.0, SVG Export Plug-In . SVG Version: 6.00 Build 0)  -->
<svg version="1.1" id="Слой_1" xmlns="http://www.w3.org/2000/svg" xmlns:xlink="http://www.w3.org/1999/xlink" x="0px" y="0px"
	 viewBox="0 0 30 30" style="enable-background:new 0 0 30 30;" xml:space="preserve">
<style type="text/css">
	.st0{fill:url(#SVGID_1_);}
</style>
<g id="surface1">
	<linearGradient id="SVGID_1_" gradientUnits="userSpaceOnUse" x1="0.625" y1="15" x2="29.375" y2="15">
		<stop  offset="0" style="stop-color:#4FACFE"/>
		<stop  offset="1" style="stop-color:#00F2FE"/>
	</linearGradient>
	<path class="st0" d="M15,1C7.1,1,0.6,7.4,0.6,15.4c0,6.3,4.1,11.7,9.8,13.6c0.7,0.1,1-0.3,1-0.7c0-0.3,0-1.2,0-2.4
		c-4,0.9-4.8-1.9-4.8-1.9C5.9,22.3,5,21.8,5,21.8C3.7,20.9,5.1,21,5.1,21c1.4,0.1,2.2,1.5,2.2,1.5c1.3,2.2,3.4,1.6,4.2,1.2
		c0.1-0.9,0.5-1.6,0.9-1.9c-3.2-0.4-6.5-1.6-6.5-7.1c0-1.6,0.6-2.9,1.5-3.9c-0.1-0.4-0.6-1.8,0.1-3.8c0,0,1.2-0.4,4,1.5
		c1.1-0.3,2.4-0.5,3.6-0.5c1.2,0,2.5,0.2,3.6,0.5c2.7-1.9,3.9-1.5,3.9-1.5c0.8,2,0.3,3.4,0.1,3.8c0.9,1,1.5,2.3,1.5,3.9
		c0,5.5-3.4,6.7-6.6,7.1c0.5,0.4,1,1.3,1,2.7c0,1.9,0,3.5,0,3.9c0,0.4,0.3,0.8,1,0.7c5.7-1.9,9.8-7.3,9.8-13.6C29.4,7.4,22.9,1,15,1
		z"/>
</g>
</svg>
