<?xml version="1.0" encoding="utf-8"?>
<!-- Generator: Adobe Illustrator 21.0.0, SVG Export Plug-In . SVG Version: 6.00 Build 0)  -->
<svg version="1.1" id="Capa_1" xmlns="http://www.w3.org/2000/svg" xmlns:xlink="http://www.w3.org/1999/xlink" x="0px" y="0px"
	 viewBox="0 0 59 74" style="enable-background:new 0 0 59 74;" xml:space="preserve">
<style type="text/css">
	.st0{fill:url(#SVGID_1_);}
	.st1{fill:url(#SVGID_2_);}
</style>
<g>
	<g>
		<linearGradient id="SVGID_1_" gradientUnits="userSpaceOnUse" x1="0.1445" y1="37" x2="58.7416" y2="37">
			<stop  offset="0" style="stop-color:#4FACFE"/>
			<stop  offset="1" style="stop-color:#00F2FE"/>
		</linearGradient>
		<path class="st0" d="M50.3,27.2h-5.2V15.3c0-8.4-7-15.3-15.6-15.3S13.9,6.9,13.9,15.3v11.9H8.7c-4.8,0-8.7,3.9-8.7,8.7v29.5
			C0,70.1,3.9,74,8.7,74h41.6c4.8,0,8.7-3.9,8.7-8.7V35.8C59,31.1,55.1,27.2,50.3,27.2z M19.7,15.3c0-5.2,4.4-9.5,9.8-9.5
			s9.8,4.3,9.8,9.5v11.9H19.7L19.7,15.3L19.7,15.3z M53.2,65.3c0,1.6-1.3,2.9-2.9,2.9H8.7c-1.6,0-2.9-1.3-2.9-2.9V35.8
			c0-1.6,1.3-2.9,2.9-2.9h41.6c1.6,0,2.9,1.3,2.9,2.9V65.3z"/>
	</g>
</g>
<g>
	<g>
		<linearGradient id="SVGID_2_" gradientUnits="userSpaceOnUse" x1="0.1445" y1="50.875" x2="58.7416" y2="50.875">
			<stop  offset="0" style="stop-color:#4FACFE"/>
			<stop  offset="1" style="stop-color:#00F2FE"/>
		</linearGradient>
		<path class="st1" d="M29.5,41.3c-3,0-5.3,2.4-5.3,5.3c0,1.9,1,3.5,2.5,4.5v6.3c0,1.6,1.3,2.9,2.9,2.9c1.6,0,2.9-1.3,2.9-2.9v-6.3
			c1.5-1,2.5-2.6,2.5-4.5C34.8,43.7,32.4,41.3,29.5,41.3z"/>
	</g>
</g>
</svg>
