<?xml version="1.0" encoding="utf-8"?>
<!-- Generator: Adobe Illustrator 21.0.0, SVG Export Plug-In . SVG Version: 6.00 Build 0)  -->
<svg version="1.1" id="Слой_1" xmlns="http://www.w3.org/2000/svg" xmlns:xlink="http://www.w3.org/1999/xlink" x="0px" y="0px"
	 viewBox="0 0 29 29" style="enable-background:new 0 0 29 29;" xml:space="preserve">
<style type="text/css">
	.st0{fill:url(#SVGID_1_);}
	.st1{fill:url(#SVGID_2_);}
	.st2{fill:url(#SVGID_3_);}
</style>
<linearGradient id="SVGID_1_" gradientUnits="userSpaceOnUse" x1="0.1667" y1="14.5" x2="28.9495" y2="14.5">
	<stop  offset="0" style="stop-color:#4FACFE"/>
	<stop  offset="1" style="stop-color:#00F2FE"/>
</linearGradient>
<path class="st0" d="M14.5,2C21.4,2,27,7.6,27,14.5S21.4,27,14.5,27S2,21.4,2,14.5S7.6,2,14.5,2 M14.5,0C6.5,0,0,6.5,0,14.5
	S6.5,29,14.5,29S29,22.5,29,14.5S22.5,0,14.5,0L14.5,0z"/>
<g>
	<g>
		<linearGradient id="SVGID_2_" gradientUnits="userSpaceOnUse" x1="0.1667" y1="10.5" x2="28.9495" y2="10.5">
			<stop  offset="0" style="stop-color:#4FACFE"/>
			<stop  offset="1" style="stop-color:#00F2FE"/>
		</linearGradient>
		<path class="st1" d="M14.5,7.6l3,4.8l-3,1.8l0,0l-3-1.8L14.5,7.6 M15,5h-1l-5,8l5,3h1l5-3L15,5L15,5z"/>
	</g>
	<g>
		<linearGradient id="SVGID_3_" gradientUnits="userSpaceOnUse" x1="0.1667" y1="19.5" x2="28.9495" y2="19.5">
			<stop  offset="0" style="stop-color:#4FACFE"/>
			<stop  offset="1" style="stop-color:#00F2FE"/>
		</linearGradient>
		<path class="st2" d="M12.6,18.4l0.7,0.3l0.3,0.1H14h1h0.3l0.3-0.1l0.7-0.3l-1.9,3L12.6,18.4 M20,15l-5,2h-1l-5-2v1l5,8h1l5-8V15
			L20,15z"/>
	</g>
</g>
</svg>
