<?xml version="1.0" encoding="utf-8"?>
<!-- Generator: Adobe Illustrator 21.0.0, SVG Export Plug-In . SVG Version: 6.00 Build 0)  -->
<svg version="1.1" id="Слой_1" xmlns="http://www.w3.org/2000/svg" xmlns:xlink="http://www.w3.org/1999/xlink" x="0px" y="0px"
	 viewBox="0 0 29 29" style="enable-background:new 0 0 29 29;" xml:space="preserve">
<style type="text/css">
	.st0{fill:url(#SVGID_1_);}
	.st1{fill:url(#SVGID_2_);}
</style>
<linearGradient id="SVGID_1_" gradientUnits="userSpaceOnUse" x1="8.333334e-02" y1="14.5" x2="28.9149" y2="14.5">
	<stop  offset="0" style="stop-color:#4FACFE"/>
	<stop  offset="1" style="stop-color:#00F2FE"/>
</linearGradient>
<path class="st0" d="M14.5,2C21.4,2,27,7.6,27,14.5S21.4,27,14.5,27S2,21.4,2,14.5S7.6,2,14.5,2 M14.5,0C6.5,0,0,6.5,0,14.5
	S6.5,29,14.5,29S29,22.5,29,14.5S22.5,0,14.5,0L14.5,0z"/>
<linearGradient id="SVGID_2_" gradientUnits="userSpaceOnUse" x1="8.333334e-02" y1="15.6972" x2="28.9149" y2="15.6972">
	<stop  offset="0" style="stop-color:#4FACFE"/>
	<stop  offset="1" style="stop-color:#00F2FE"/>
</linearGradient>
<path class="st1" d="M12.3,24.3h1.6c0.6,0,1.1-0.5,1.1-1.1v-4.8c0-0.3,0.2-0.5,0.5-0.5h4.3c3.2,0,3.2-3.2,3.2-3.2s0,2.1,0-3.2
	c0-4.3-3.2-4.3-3.2-4.3H8C7.4,7.1,7,7.6,7,8.2v2.7C7,11.5,7.4,12,8,12h9.6c0,0,1.1,0,1.1,1.1s-1.1,1.1-1.1,1.1h-5.3
	c-0.6,0-1.1,0.5-1.1,1.1v8C11.2,23.8,11.7,24.3,12.3,24.3z"/>
</svg>
