<?xml version="1.0" encoding="utf-8"?>
<!-- Generator: Adobe Illustrator 21.0.0, SVG Export Plug-In . SVG Version: 6.00 Build 0)  -->
<svg version="1.1" id="Capa_1" xmlns="http://www.w3.org/2000/svg" xmlns:xlink="http://www.w3.org/1999/xlink" x="0px" y="0px"
	 viewBox="0 0 23 27" style="enable-background:new 0 0 23 27;" xml:space="preserve">
<style type="text/css">
	.st0{fill:url(#SVGID_1_);}
</style>
<g>
	<g>
		<linearGradient id="SVGID_1_" gradientUnits="userSpaceOnUse" x1="0" y1="13.5" x2="23" y2="13.5">
			<stop  offset="0" style="stop-color:#FFFFFF"/>
			<stop  offset="1" style="stop-color:#FFFFFF"/>
		</linearGradient>
		<path class="st0" d="M17,0h-11c-0.5,0-1,0.4-1,1v4.2H1c-0.5,0-1,0.4-1,1V26c0,0.5,0.4,1,1,1h16.1c0.5,0,1-0.4,1-1v-4.4h4
			c0.5,0,1-0.4,1-1V6.1c0-0.3-0.1-0.5-0.3-0.7l-5-5.1C17.6,0.1,17.3,0,17,0z M16.1,25H1.9V7.2h3.2v13.5c0,0.5,0.4,1,1,1h10.1
			L16.1,25L16.1,25z M7,19.7V2h8.3v5.5c0,0.5,0.4,1,1,1h4.8v11.2H7z M21.1,6.5h-3.8V2.6L21.1,6.5L21.1,6.5z"/>
	</g>
</g>
</svg>
