<?xml version="1.0" encoding="utf-8"?>
<!-- Generator: Adobe Illustrator 21.0.0, SVG Export Plug-In . SVG Version: 6.00 Build 0)  -->
<svg version="1.1" id="Layer_1" xmlns="http://www.w3.org/2000/svg" xmlns:xlink="http://www.w3.org/1999/xlink" x="0px" y="0px"
	 viewBox="0 0 45.1 54" style="enable-background:new 0 0 45.1 54;" xml:space="preserve">
<style type="text/css">
	.st0{fill:url(#SVGID_1_);}
	.st1{fill:url(#SVGID_2_);}
	.st2{fill:url(#SVGID_3_);}
	.st3{fill:url(#SVGID_4_);}
	.st4{fill:url(#SVGID_5_);}
	.st5{fill:url(#SVGID_6_);}
	.st6{fill:url(#SVGID_7_);}
	.st7{fill:url(#SVGID_8_);}
	.st8{fill:url(#SVGID_9_);}
	.st9{fill:url(#SVGID_10_);}
	.st10{fill:url(#SVGID_11_);}
	.st11{fill:url(#SVGID_12_);}
</style>
<g>
	<linearGradient id="SVGID_1_" gradientUnits="userSpaceOnUse" x1="0.5475" y1="22.3389" x2="44.9963" y2="22.3389">
		<stop  offset="0" style="stop-color:#4FACFE"/>
		<stop  offset="1" style="stop-color:#00F2FE"/>
	</linearGradient>
	<path class="st0" d="M1.7,38l1.7,1.6L5.2,38v-10c0.1-0.2,0.1-0.5,0.1-0.7c0-0.5-0.1-1-0.1-1.6c0-9.6,7.8-17.3,17.3-17.3
		c9.6,0,17.3,7.8,17.3,17.3V38l1.7,1.6l1.8-1.6V25.8C43.3,14.3,34,5,22.5,5S1.7,14.3,1.7,25.8c0,0.4,0,0.9,0.1,1.3
		c0,0.1-0.1,0.3-0.1,0.4V38z"/>
	<linearGradient id="SVGID_2_" gradientUnits="userSpaceOnUse" x1="0.5475" y1="37.9342" x2="44.9963" y2="37.9342">
		<stop  offset="0" style="stop-color:#4FACFE"/>
		<stop  offset="1" style="stop-color:#00F2FE"/>
	</linearGradient>
	<circle class="st1" cx="3.5" cy="37.9" r="1.7"/>
	<linearGradient id="SVGID_3_" gradientUnits="userSpaceOnUse" x1="0.5475" y1="37.9342" x2="44.9963" y2="37.9342">
		<stop  offset="0" style="stop-color:#4FACFE"/>
		<stop  offset="1" style="stop-color:#00F2FE"/>
	</linearGradient>
	<circle class="st2" cx="41.6" cy="37.9" r="1.7"/>
	<g>
		<g>
			<linearGradient id="SVGID_4_" gradientUnits="userSpaceOnUse" x1="0.5475" y1="46.5985" x2="44.9963" y2="46.5985">
				<stop  offset="0" style="stop-color:#4FACFE"/>
				<stop  offset="1" style="stop-color:#00F2FE"/>
			</linearGradient>
			<path class="st3" d="M32.5,43.8c-0.6-0.7-1.7-0.9-2.4-0.3c-1.1,0.9-4.5,3.1-7.6,3.1c-3.7,0-7.5-3.1-7.6-3.1
				c-0.7-0.6-1.8-0.5-2.4,0.3c-0.6,0.7-0.5,1.8,0.3,2.4c0.2,0.2,4.9,3.8,9.7,3.8s9.6-3.7,9.7-3.8C33,45.6,33.1,44.5,32.5,43.8z"/>
		</g>
	</g>
	<g>
		<g>
			<g>
				<linearGradient id="SVGID_5_" gradientUnits="userSpaceOnUse" x1="0.5475" y1="7.9397" x2="44.9963" y2="7.9397">
					<stop  offset="0" style="stop-color:#4FACFE"/>
					<stop  offset="1" style="stop-color:#00F2FE"/>
				</linearGradient>
				<path class="st4" d="M21.4,5.1C21,5,10.4,0.8,2.2,9c-0.7,0.7-0.7,1.8,0,2.5c0.3,0.3,0.8,0.5,1.2,0.5s0.9-0.2,1.2-0.5
					c6.5-6.5,15.1-3.2,15.5-3.1c0.9,0.4,1.9-0.1,2.2-1C22.8,6.5,22.3,5.5,21.4,5.1z"/>
			</g>
		</g>
		<g>
			<g>
				<linearGradient id="SVGID_6_" gradientUnits="userSpaceOnUse" x1="0.5475" y1="7.939" x2="44.9963" y2="7.939">
					<stop  offset="0" style="stop-color:#4FACFE"/>
					<stop  offset="1" style="stop-color:#00F2FE"/>
				</linearGradient>
				<path class="st5" d="M42.8,9c-8.2-8.2-18.8-4-19.2-3.8c-0.9,0.4-1.3,1.4-1,2.3c0.4,0.9,1.4,1.3,2.3,1c0.1,0,8.9-3.5,15.5,3.1
					c0.3,0.3,0.8,0.5,1.2,0.5s0.9-0.2,1.2-0.5C43.5,10.8,43.5,9.7,42.8,9z"/>
			</g>
		</g>
	</g>
	<g>
		<g>
			<g>
				<linearGradient id="SVGID_7_" gradientUnits="userSpaceOnUse" x1="0.5475" y1="25.8045" x2="44.9963" y2="25.8045">
					<stop  offset="0" style="stop-color:#4FACFE"/>
					<stop  offset="1" style="stop-color:#00F2FE"/>
				</linearGradient>
				<path class="st6" d="M16.5,18c-4.3,0-7.8,3.5-7.8,7.8s3.5,7.8,7.8,7.8s7.8-3.5,7.8-7.8S20.8,18,16.5,18z M16.5,30.1
					c-2.4,0-4.3-1.9-4.3-4.3s1.9-4.3,4.3-4.3s4.3,1.9,4.3,4.3S18.9,30.1,16.5,30.1z"/>
			</g>
		</g>
		<g>
			<g>
				<linearGradient id="SVGID_8_" gradientUnits="userSpaceOnUse" x1="0.5475" y1="25.8045" x2="44.9963" y2="25.8045">
					<stop  offset="0" style="stop-color:#4FACFE"/>
					<stop  offset="1" style="stop-color:#00F2FE"/>
				</linearGradient>
				<path class="st7" d="M28.6,18c-4.3,0-7.8,3.5-7.8,7.8s3.5,7.8,7.8,7.8s7.8-3.5,7.8-7.8S32.9,18,28.6,18z M28.6,30.1
					c-2.4,0-4.3-1.9-4.3-4.3s1.9-4.3,4.3-4.3s4.3,1.9,4.3,4.3C32.9,28.2,31,30.1,28.6,30.1z"/>
			</g>
		</g>
		<g>
			<g>
				<linearGradient id="SVGID_9_" gradientUnits="userSpaceOnUse" x1="0.5475" y1="26.6709" x2="44.9963" y2="26.6709">
					<stop  offset="0" style="stop-color:#4FACFE"/>
					<stop  offset="1" style="stop-color:#00F2FE"/>
				</linearGradient>
				<path class="st8" d="M43.9,25.9c-0.2-0.1-5-1.8-9.3-1.8c-1,0-1.7,0.8-1.7,1.7s0.8,1.7,1.7,1.7c3.6,0,8,1.6,8.1,1.6
					c0.2,0.1,0.4,0.1,0.6,0.1c0.7,0,1.4-0.4,1.6-1.1C45.3,27.2,44.8,26.2,43.9,25.9z"/>
			</g>
		</g>
		<g>
			<g>
				<linearGradient id="SVGID_10_" gradientUnits="userSpaceOnUse" x1="0.5475" y1="26.6728" x2="44.9963" y2="26.6728">
					<stop  offset="0" style="stop-color:#4FACFE"/>
					<stop  offset="1" style="stop-color:#00F2FE"/>
				</linearGradient>
				<path class="st9" d="M10.4,24.1c-4.2,0-9,1.8-9.3,1.8c-0.9,0.3-1.4,1.3-1,2.2c0.3,0.7,0.9,1.1,1.6,1.1c0.2,0,0.4,0,0.6-0.1
					c0,0,4.5-1.6,8.1-1.6c1,0,1.7-0.8,1.7-1.7C12.1,24.9,11.4,24.1,10.4,24.1z"/>
			</g>
		</g>
		<g>
			<g>
				<linearGradient id="SVGID_11_" gradientUnits="userSpaceOnUse" x1="0.5475" y1="27.5374" x2="44.9963" y2="27.5374">
					<stop  offset="0" style="stop-color:#4FACFE"/>
					<stop  offset="1" style="stop-color:#00F2FE"/>
				</linearGradient>
				<circle class="st10" cx="15.5" cy="27.5" r="1.7"/>
			</g>
		</g>
		<g>
			<g>
				<linearGradient id="SVGID_12_" gradientUnits="userSpaceOnUse" x1="0.5475" y1="27.5374" x2="44.9963" y2="27.5374">
					<stop  offset="0" style="stop-color:#4FACFE"/>
					<stop  offset="1" style="stop-color:#00F2FE"/>
				</linearGradient>
				<circle class="st11" cx="27.7" cy="27.5" r="1.7"/>
			</g>
		</g>
	</g>
</g>
</svg>
