<?xml version="1.0" encoding="utf-8"?>
<!-- Generator: Adobe Illustrator 21.0.0, SVG Export Plug-In . SVG Version: 6.00 Build 0)  -->
<svg version="1.1" id="Layer_1" xmlns="http://www.w3.org/2000/svg" xmlns:xlink="http://www.w3.org/1999/xlink" x="0px" y="0px"
	 viewBox="0 0 45.1 54" style="enable-background:new 0 0 45.1 54;" xml:space="preserve">
<style type="text/css">
	.st0{fill:url(#SVGID_1_);}
	.st1{fill:url(#SVGID_2_);}
	.st2{fill:url(#SVGID_3_);}
	.st3{fill:url(#SVGID_4_);}
	.st4{fill:url(#SVGID_5_);}
	.st5{fill:url(#SVGID_6_);}
	.st6{fill:url(#SVGID_7_);}
	.st7{fill:url(#SVGID_8_);}
	.st8{fill:url(#SVGID_9_);}
	.st9{fill:url(#SVGID_10_);}
</style>
<g>
	
		<linearGradient id="SVGID_1_" gradientUnits="userSpaceOnUse" x1="0.5475" y1="32.7" x2="45.0153" y2="32.7" gradientTransform="matrix(1 0 0 -1 0 55)">
		<stop  offset="0" style="stop-color:#4FACFE"/>
		<stop  offset="1" style="stop-color:#00F2FE"/>
	</linearGradient>
	<path class="st0" d="M1.7,38l1.7,1.6L5.2,38V28c0.1-0.2,0.1-0.5,0.1-0.7c0-0.5-0.1-1-0.1-1.6c0-9.6,7.8-17.3,17.3-17.3
		c9.6,0,17.3,7.8,17.3,17.3V38l1.7,1.6l1.8-1.6V25.8C43.3,14.3,34,5,22.5,5S1.7,14.3,1.7,25.8c0,0.4,0,0.9,0.1,1.3
		c0,0.1-0.1,0.3-0.1,0.4V38z"/>
	
		<linearGradient id="SVGID_2_" gradientUnits="userSpaceOnUse" x1="0.5475" y1="17.1" x2="45.0153" y2="17.1" gradientTransform="matrix(1 0 0 -1 0 55)">
		<stop  offset="0" style="stop-color:#4FACFE"/>
		<stop  offset="1" style="stop-color:#00F2FE"/>
	</linearGradient>
	<circle class="st1" cx="3.5" cy="37.9" r="1.7"/>
	
		<linearGradient id="SVGID_3_" gradientUnits="userSpaceOnUse" x1="0.5475" y1="17.1" x2="45.0153" y2="17.1" gradientTransform="matrix(1 0 0 -1 0 55)">
		<stop  offset="0" style="stop-color:#4FACFE"/>
		<stop  offset="1" style="stop-color:#00F2FE"/>
	</linearGradient>
	<circle class="st2" cx="41.6" cy="37.9" r="1.7"/>
	<g>
		<g>
			
				<linearGradient id="SVGID_4_" gradientUnits="userSpaceOnUse" x1="0.5475" y1="8.4429" x2="45.0153" y2="8.4429" gradientTransform="matrix(1 0 0 -1 0 55)">
				<stop  offset="0" style="stop-color:#4FACFE"/>
				<stop  offset="1" style="stop-color:#00F2FE"/>
			</linearGradient>
			<path class="st3" d="M32.5,43.8c-0.6-0.7-1.7-0.9-2.4-0.3c-1.1,0.9-4.5,3.1-7.6,3.1c-3.7,0-7.5-3.1-7.6-3.1
				c-0.7-0.6-1.8-0.5-2.4,0.3c-0.6,0.7-0.5,1.8,0.3,2.4c0.2,0.2,4.9,3.8,9.7,3.8s9.6-3.7,9.7-3.8C33,45.6,33.1,44.5,32.5,43.8z"/>
		</g>
	</g>
	<g>
		<g>
			<g>
				
					<linearGradient id="SVGID_5_" gradientUnits="userSpaceOnUse" x1="0.5475" y1="47.0318" x2="45.0153" y2="47.0318" gradientTransform="matrix(1 0 0 -1 0 55)">
					<stop  offset="0" style="stop-color:#4FACFE"/>
					<stop  offset="1" style="stop-color:#00F2FE"/>
				</linearGradient>
				<path class="st4" d="M21.4,5.1C21,5,10.4,0.8,2.2,9c-0.7,0.7-0.7,1.8,0,2.5C2.5,11.8,3,12,3.4,12s0.9-0.2,1.2-0.5
					C11.1,5,19.7,8.3,20.1,8.4c0.9,0.4,1.9-0.1,2.2-1C22.8,6.5,22.3,5.5,21.4,5.1z"/>
			</g>
		</g>
		<g>
			<g>
				
					<linearGradient id="SVGID_6_" gradientUnits="userSpaceOnUse" x1="0.5475" y1="46.9759" x2="45.0153" y2="46.9759" gradientTransform="matrix(1 0 0 -1 0 55)">
					<stop  offset="0" style="stop-color:#4FACFE"/>
					<stop  offset="1" style="stop-color:#00F2FE"/>
				</linearGradient>
				<path class="st5" d="M42.8,9C34.6,0.8,24,5,23.6,5.2c-0.9,0.4-1.3,1.4-1,2.3c0.4,0.9,1.4,1.3,2.3,1c0.1,0,8.9-3.5,15.5,3.1
					c0.3,0.3,0.8,0.5,1.2,0.5s0.9-0.2,1.2-0.5C43.5,10.8,43.5,9.7,42.8,9z"/>
			</g>
		</g>
	</g>
	<g>
		<g>
			<g>
				
					<linearGradient id="SVGID_7_" gradientUnits="userSpaceOnUse" x1="0.5475" y1="25.9" x2="45.0153" y2="25.9" gradientTransform="matrix(1 0 0 -1 0 55)">
					<stop  offset="0" style="stop-color:#4FACFE"/>
					<stop  offset="1" style="stop-color:#00F2FE"/>
				</linearGradient>
				<circle class="st6" cx="22.5" cy="29.1" r="3.5"/>
			</g>
		</g>
		<g>
			<g>
				
					<linearGradient id="SVGID_8_" gradientUnits="userSpaceOnUse" x1="0.5475" y1="29.2" x2="45.0153" y2="29.2" gradientTransform="matrix(1 0 0 -1 0 55)">
					<stop  offset="0" style="stop-color:#4FACFE"/>
					<stop  offset="1" style="stop-color:#00F2FE"/>
				</linearGradient>
				<path class="st7" d="M22.5,11.9c-7.6,0-13.9,6.2-13.9,13.9s6.2,13.9,13.9,13.9s13.9-6.2,13.9-13.9S30.2,11.9,22.5,11.9z
					 M22.5,36.2c-5.7,0-10.4-4.7-10.4-10.4s4.7-10.4,10.4-10.4s10.4,4.7,10.4,10.4S28.3,36.2,22.5,36.2z"/>
			</g>
		</g>
		<g>
			<g>
				
					<linearGradient id="SVGID_9_" gradientUnits="userSpaceOnUse" x1="0.5475" y1="28.35" x2="45.0153" y2="28.35" gradientTransform="matrix(1 0 0 -1 0 55)">
					<stop  offset="0" style="stop-color:#4FACFE"/>
					<stop  offset="1" style="stop-color:#00F2FE"/>
				</linearGradient>
				<path class="st8" d="M43.9,25.9c-0.2-0.1-5-1.8-9.3-1.8c-1,0-1.7,0.8-1.7,1.7s0.8,1.7,1.7,1.7c3.6,0,8,1.6,8.1,1.6
					c0.2,0.1,0.4,0.1,0.6,0.1c0.7,0,1.4-0.4,1.6-1.1C45.3,27.2,44.8,26.2,43.9,25.9z"/>
			</g>
		</g>
		<g>
			<g>
				
					<linearGradient id="SVGID_10_" gradientUnits="userSpaceOnUse" x1="0.5475" y1="28.35" x2="45.0153" y2="28.35" gradientTransform="matrix(1 0 0 -1 0 55)">
					<stop  offset="0" style="stop-color:#4FACFE"/>
					<stop  offset="1" style="stop-color:#00F2FE"/>
				</linearGradient>
				<path class="st9" d="M10.4,24.1c-4.2,0-9,1.8-9.3,1.8c-0.9,0.3-1.4,1.3-1,2.2c0.3,0.7,0.9,1.1,1.6,1.1c0.2,0,0.4,0,0.6-0.1
					c0,0,4.5-1.6,8.1-1.6c1,0,1.7-0.8,1.7-1.7C12.1,24.9,11.4,24.1,10.4,24.1z"/>
			</g>
		</g>
	</g>
</g>
</svg>
