<?xml version="1.0" encoding="utf-8"?>
<!-- Generator: Adobe Illustrator 21.0.0, SVG Export Plug-In . SVG Version: 6.00 Build 0)  -->
<svg version="1.1" id="Capa_1" xmlns="http://www.w3.org/2000/svg" xmlns:xlink="http://www.w3.org/1999/xlink" x="0px" y="0px"
	 viewBox="0 0 42 42" style="enable-background:new 0 0 42 42;" xml:space="preserve">
<style type="text/css">
	.st0{fill:url(#SVGID_1_);}
	.st1{fill:url(#SVGID_2_);}
	.st2{fill:url(#SVGID_3_);}
</style>
<g>
	<g>
		<g>
			<linearGradient id="SVGID_1_" gradientUnits="userSpaceOnUse" x1="0.25" y1="31.0488" x2="41.926" y2="31.0488">
				<stop  offset="0" style="stop-color:#4FACFE"/>
				<stop  offset="1" style="stop-color:#00F2FE"/>
			</linearGradient>
			<circle class="st0" cx="21" cy="31" r="2.1"/>
			<linearGradient id="SVGID_2_" gradientUnits="userSpaceOnUse" x1="0.25" y1="21" x2="41.926" y2="21">
				<stop  offset="0" style="stop-color:#4FACFE"/>
				<stop  offset="1" style="stop-color:#00F2FE"/>
			</linearGradient>
			<path class="st1" d="M21,0C9.4,0,0,9.4,0,21c0,11.6,9.4,21,21,21c11.6,0,21-9.4,21-21C42,9.4,32.6,0,21,0z M21,38.7
				c-9.8,0-17.7-7.9-17.7-17.7c0-9.8,7.9-17.7,17.7-17.7c9.8,0,17.7,7.9,17.7,17.7C38.7,30.8,30.8,38.7,21,38.7z"/>
			<linearGradient id="SVGID_3_" gradientUnits="userSpaceOnUse" x1="0.25" y1="19.1543" x2="41.926" y2="19.1543">
				<stop  offset="0" style="stop-color:#4FACFE"/>
				<stop  offset="1" style="stop-color:#00F2FE"/>
			</linearGradient>
			<path class="st2" d="M21,10.5c-3.6,0-6.6,2.9-6.6,6.6c0,0.9,0.7,1.6,1.6,1.6c0.9,0,1.6-0.7,1.6-1.6c0-1.8,1.5-3.3,3.3-3.3
				s3.3,1.5,3.3,3.3s-1.5,3.3-3.3,3.3c-0.9,0-1.6,0.7-1.6,1.6v4.1c0,0.9,0.7,1.6,1.6,1.6c0.9,0,1.6-0.7,1.6-1.6v-2.7
				c2.8-0.7,4.9-3.3,4.9-6.4C27.6,13.5,24.6,10.5,21,10.5z"/>
		</g>
	</g>
</g>
</svg>
